{"title":"Swedish House Mafia - Leave The World Behind (2014) 1080p WEB-DL","uid":10011141,"size":3233697854,"categoryP":"video","categoryS":"hd___movies","magnet":"?xt=urn:btih:1f630ff577927fe96b383ebd0b0ecd2db7ef78ff&amp;dn=Swedish+House+Mafia+-+Leave+The+World+Behind+%282014%29+1080p+WEB-DL&amp;tr=udp%3A%2F%2Ftracker.openbittorrent.com%3A80&amp;tr=udp%3A%2F%2Fopen.demonii.com%3A1337&amp;tr=udp%3A%2F%2Ftracker.coppersurfer.tk%3A6969&amp;tr=udp%3A%2F%2Fexodus.desync.com%3A6969","seeders":1,"leechers":0,"uploader":"Isaac09","files":2,"time":1398100592,"description":"Leave The World Behind (2014)\n\n95 min  -  Documentary | Music  -  April 2014 (USA)\n\n\nA music documentary following the last tour of the band Swedish House Mafia in 2012/2013, the film tells a story of friendship and huge success.\n\nWITH PROPER ENGLISH SUBTITLES.\n\n\nGeneral\nUnique ID                                : 195994569173226967100447049563338515516 (0x93732E541A30A335B685086C0F39243C)\nComplete name                            : C:UsersIsaacDownloadsLauraSwedish House Mafia - Leave The World BehindSwedish House Mafia - Leave The World Behind.mkv\nFormat                                   : Matroska\nFormat version                           : Version 4 / Version 2\nFile size                                : 3.01 GiB\nDuration                                 : 1h 35mn\nOverall bit rate                         : 4 526 Kbps\nEncoded date                             : UTC 2014-04-21 14:47:51\nWriting application                      : mkvmerge v6.7.0 ('Back to the Ground') 64bit built on Jan  8 2014 15:10:52\nWriting library                          : libebml v1.3.0 + libmatroska v1.4.1\n\nVideo\nID                                       : 1\nFormat                                   : AVC\nFormat/Info                              : Advanced Video Codec\nFormat profile                           : &lt;a class=&quot;__cf_email__&quot; href=&quot;/cdn-cgi/l/email-protection&quot; data-cfemail=&quot;460e2f212e060a726876&quot;&gt;[email&amp;#160;protected]&lt;/a&gt;&lt;script cf-hash='f9e31' type=&quot;text/javascript&quot;&gt;\n/* &lt;![CDATA[ */!function(){try{var t=&quot;currentScript&quot;in document?document.currentScript:function(){for(var t=document.getElementsByTagName(&quot;script&quot;),e=t.length;e--;)if(t[e].getAttribute(&quot;cf-hash&quot;))return t[e]}();if(t&amp;&amp;t.previousSibling){var e,r,n,i,c=t.previousSibling,a=c.getAttribute(&quot;data-cfemail&quot;);if(a){for(e=&quot;&quot;,r=parseInt(a.substr(0,2),16),n=2;a.length-n;n+=2)i=parseInt(a.substr(n,2),16)^r,e+=String.fromCharCode(i);e=document.createTextNode(e),c.parentNode.replaceChild(e,c)}}}catch(u){}}();/* ]]&gt; */&lt;/script&gt;\nFormat settings, CABAC                   : Yes\nFormat settings, ReFrames                : 5 frames\nCodec ID                                 : V_MPEG4/ISO/AVC\nDuration                                 : 1h 35mn\nBit rate                                 : 4 052 Kbps\nWidth                                    : 1 904 pixels\nHeight                                   : 816 pixels\nDisplay aspect ratio                     : 2.35:1\nFrame rate mode                          : Constant\nFrame rate                               : 25.000 fps\nColor space                              : YUV\nChroma subsampling                       : 4:2:0\nBit depth                                : 8 bits\nScan type                                : Progressive\nBits/(Pixel*Frame)                       : 0.104\nStream size                              : 2.69 GiB (90%)\nLanguage                                 : English\nDefault                                  : Yes\nForced                                   : No\nColor primaries                          : BT.709\nTransfer characteristics                 : BT.709\nMatrix coefficients                      : BT.709\n\nAudio\nID                                       : 2\nFormat                                   : AC-3\nFormat/Info                              : Audio Coding 3\nMode extension                           : CM (complete main)\nFormat settings, Endianness              : Big\nCodec ID                                 : A_AC3\nDuration                                 : 1h 35mn\nBit rate mode                            : Constant\nBit rate                                 : 384 Kbps\nChannel count                            : 6 channels\nChannel positions                        : Front: L C R, Side: L R, LFE\nSampling rate                            : 48.0 KHz\nBit depth                                : 16 bits\nCompression mode                         : Lossy\nStream size                              : 262 MiB (8%)\nLanguage                                 : English\nDefault                                  : Yes\nForced                                   : No\n\nText #1\nID                                       : 3\nFormat                                   : UTF-8\nCodec ID                                 : S_TEXT/UTF8\nCodec ID/Info                            : UTF-8 Plain Text\nLanguage                                 : Spanish\nDefault                                  : No\nForced                                   : No\n\nText #2\nID                                       : 4\nFormat                                   : UTF-8\nCodec ID                                 : S_TEXT/UTF8\nCodec ID/Info                            : UTF-8 Plain Text\nLanguage                                 : English\nDefault                                  : Yes\nForced                                   : No\n\nMenu\n00:00:00.000                             : en:Intro\n00:03:31.000                             : en:Axwell\n00:04:20.000                             : en:Steve Angello\n00:04:53.000                             : en:Sebastian Ingrosso\n00:05:48.000                             : en:One Last Tour\n00:09:18.000                             : en:Stockholm\n00:14:26.000                             : en:Leaving Home\n00:16:51.000                             : en:The Beginning\n00:22:13.000                             : en:France\n00:24:05.000                             : en:Europe\n00:30:31.000                             : en:Early Days\n00:33:05.000                             : en:South Africa And Asia\n00:42:28.000                             : en:Mexico\n00:46:07.000                             : en:Don't You Worry Child\n00:58:32.000                             : en:Antidote\n01:06:24.000                             : en:Hiatus\n01:08:13.000                             : en:India\n01:14:08.000                             : en:North America\n01:21:25.000                             : en:Miami\n01:24:51.000                             : en:The Last Show\n","torrent":{"xt":"urn:btih:1f630ff577927fe96b383ebd0b0ecd2db7ef78ff","amp;dn":"Swedish+House+Mafia+-+Leave+The+World+Behind+%282014%29+1080p+WEB-DL","amp;tr":["udp%3A%2F%2Ftracker.openbittorrent.com%3A80","udp%3A%2F%2Fopen.demonii.com%3A1337","udp%3A%2F%2Ftracker.coppersurfer.tk%3A6969","udp%3A%2F%2Fexodus.desync.com%3A6969"],"infoHash":"1f630ff577927fe96b383ebd0b0ecd2db7ef78ff","infoHashBuffer":{"type":"Buffer","data":[31,99,15,245,119,146,127,233,107,56,62,189,11,14,205,45,183,239,120,255]},"announce":[],"urlList":[]}}